<svg width="175" height="24" viewBox="0 0 175 24" fill="none" xmlns="http://www.w3.org/2000/svg">
<path d="M38.82 20.19C37.98 20.19 37.21 20.02 36.51 19.68C35.81 19.3333 35.2 18.8367 34.68 18.19C34.1667 17.5367 33.7667 16.74 33.48 15.8C33.2 14.86 33.06 13.7967 33.06 12.61C33.06 11.4167 33.2 10.3567 33.48 9.43C33.7667 8.49667 34.1667 7.70667 34.68 7.06C35.2 6.41333 35.81 5.92333 36.51 5.59C37.2167 5.25667 37.9867 5.09 38.82 5.09C39.66 5.09 40.43 5.25667 41.13 5.59C41.8367 5.92333 42.4467 6.41333 42.96 7.06C43.48 7.70667 43.88 8.49667 44.16 9.43C44.4467 10.3567 44.59 11.4167 44.59 12.61C44.59 13.7967 44.4467 14.86 44.16 15.8C43.88 16.74 43.48 17.5367 42.96 18.19C42.4467 18.8367 41.8367 19.3333 41.13 19.68C40.43 20.02 39.66 20.19 38.82 20.19ZM38.82 19.07C39.7067 19.07 40.4867 18.82 41.16 18.32C41.84 17.82 42.37 17.09 42.75 16.13C43.1367 15.17 43.33 13.9967 43.33 12.61C43.33 11.2167 43.1367 10.0467 42.75 9.1C42.3633 8.14667 41.83 7.42667 41.15 6.94C40.4767 6.45333 39.7 6.21 38.82 6.21C37.9467 6.21 37.17 6.45333 36.49 6.94C35.81 7.42667 35.2767 8.14667 34.89 9.1C34.5033 10.0467 34.31 11.2167 34.31 12.61C34.31 14.0033 34.5033 15.18 34.89 16.14C35.2767 17.1 35.81 17.83 36.49 18.33C37.17 18.8233 37.9467 19.07 38.82 19.07ZM54.9923 20V14.72C54.9923 14.3933 54.9923 14.1333 54.9923 13.94C54.9923 13.7467 54.9923 13.5567 54.9923 13.37C54.9923 12.7767 54.8857 12.26 54.6723 11.82C54.4657 11.3733 54.1457 11.0267 53.7123 10.78C53.279 10.5267 52.7223 10.4 52.0423 10.4C51.4423 10.4 50.879 10.55 50.3523 10.85C49.8257 11.1433 49.399 11.5433 49.0723 12.05C48.7523 12.5567 48.5923 13.1267 48.5923 13.76L47.8423 13.48C47.8423 12.6733 48.049 11.95 48.4623 11.31C48.8823 10.67 49.429 10.1633 50.1023 9.79C50.7823 9.41667 51.5023 9.23 52.2623 9.23C53.069 9.23 53.769 9.38333 54.3623 9.69C54.9557 9.99 55.4123 10.4267 55.7323 11C56.059 11.5667 56.2223 12.2567 56.2223 13.07C56.2223 13.35 56.2223 13.65 56.2223 13.97C56.2223 14.29 56.2223 14.58 56.2223 14.84V20H54.9923ZM47.3523 20V9.38H48.5923V20H47.3523ZM60.8903 4.37V20H59.6703V4.37H60.8903ZM64.4345 20V9.38H65.6545V20H64.4345ZM65.0545 6.7C64.7945 6.7 64.5712 6.62667 64.3845 6.48C64.1979 6.32667 64.1045 6.12333 64.1045 5.87C64.1045 5.62333 64.1979 5.42667 64.3845 5.28C64.5712 5.12667 64.7945 5.05 65.0545 5.05C65.3079 5.05 65.5279 5.12667 65.7145 5.28C65.9012 5.42667 65.9945 5.62333 65.9945 5.87C65.9945 6.12333 65.9012 6.32667 65.7145 6.48C65.5279 6.62667 65.3079 6.7 65.0545 6.7ZM76.7892 20V14.72C76.7892 14.3933 76.7892 14.1333 76.7892 13.94C76.7892 13.7467 76.7892 13.5567 76.7892 13.37C76.7892 12.7767 76.6826 12.26 76.4692 11.82C76.2626 11.3733 75.9426 11.0267 75.5092 10.78C75.0759 10.5267 74.5192 10.4 73.8392 10.4C73.2392 10.4 72.6759 10.55 72.1492 10.85C71.6226 11.1433 71.1959 11.5433 70.8692 12.05C70.5492 12.5567 70.3892 13.1267 70.3892 13.76L69.6392 13.48C69.6392 12.6733 69.8459 11.95 70.2592 11.31C70.6792 10.67 71.2259 10.1633 71.8992 9.79C72.5792 9.41667 73.2992 9.23 74.0592 9.23C74.8659 9.23 75.5659 9.38333 76.1592 9.69C76.7526 9.99 77.2092 10.4267 77.5292 11C77.8559 11.5667 78.0192 12.2567 78.0192 13.07C78.0192 13.35 78.0192 13.65 78.0192 13.97C78.0192 14.29 78.0192 14.58 78.0192 14.84V20H76.7892ZM69.1492 20V9.38H70.3892V20H69.1492ZM81.5572 15.21V14.1H90.1572L89.9172 14.44C89.9172 14.4 89.9172 14.3667 89.9172 14.34C89.9172 14.3067 89.9172 14.2733 89.9172 14.24C89.9172 13.5533 89.7705 12.9133 89.4772 12.32C89.1839 11.7267 88.7572 11.25 88.1972 10.89C87.6439 10.53 86.9672 10.35 86.1672 10.35C85.3539 10.35 84.6372 10.5367 84.0172 10.91C83.3972 11.2767 82.9139 11.7867 82.5672 12.44C82.2205 13.0867 82.0472 13.84 82.0472 14.7C82.0472 15.5667 82.2172 16.33 82.5572 16.99C82.9039 17.6433 83.3872 18.1533 84.0072 18.52C84.6272 18.88 85.3505 19.06 86.1772 19.06C86.7839 19.06 87.3105 18.9867 87.7572 18.84C88.2105 18.6867 88.5839 18.4867 88.8772 18.24C89.1772 17.9933 89.4039 17.7333 89.5572 17.46C89.7172 17.18 89.8105 16.9167 89.8372 16.67H91.0672C91.0405 17.0633 90.9139 17.4667 90.6872 17.88C90.4672 18.2867 90.1505 18.6667 89.7372 19.02C89.3305 19.3733 88.8239 19.66 88.2172 19.88C87.6172 20.0933 86.9239 20.2 86.1372 20.2C85.1105 20.2 84.1972 19.9667 83.3972 19.5C82.6039 19.0333 81.9772 18.39 81.5172 17.57C81.0639 16.7433 80.8372 15.7933 80.8372 14.72C80.8372 13.64 81.0672 12.69 81.5272 11.87C81.9872 11.0433 82.6172 10.3967 83.4172 9.93C84.2172 9.46333 85.1272 9.23 86.1472 9.23C87.1872 9.23 88.0872 9.46667 88.8472 9.94C89.6072 10.4133 90.1939 11.0567 90.6072 11.87C91.0205 12.6767 91.2272 13.5833 91.2272 14.59C91.2272 14.6767 91.2239 14.7867 91.2172 14.92C91.2172 15.0533 91.2139 15.15 91.2072 15.21H81.5572ZM98.9692 20V5.25H102.309C103.283 5.25 104.159 5.41667 104.939 5.75C105.719 6.08333 106.386 6.56667 106.939 7.2C107.493 7.83333 107.916 8.60667 108.209 9.52C108.509 10.4333 108.659 11.47 108.659 12.63C108.659 13.7833 108.509 14.8167 108.209 15.73C107.916 16.6433 107.493 17.4167 106.939 18.05C106.386 18.6833 105.719 19.1667 104.939 19.5C104.159 19.8333 103.283 20 102.309 20H98.9692ZM100.229 19.6L99.6692 18.91H102.179C103.219 18.91 104.129 18.66 104.909 18.16C105.696 17.6533 106.306 16.93 106.739 15.99C107.179 15.05 107.399 13.93 107.399 12.63C107.399 11.3167 107.179 10.1933 106.739 9.26C106.306 8.32 105.696 7.6 104.909 7.1C104.129 6.59333 103.219 6.34 102.179 6.34H99.6692L100.229 5.65V19.6ZM116.255 20.18C115.215 20.18 114.295 19.9433 113.495 19.47C112.695 18.99 112.068 18.3333 111.615 17.5C111.162 16.6667 110.935 15.7267 110.935 14.68C110.935 13.6267 111.162 12.69 111.615 11.87C112.068 11.05 112.695 10.4067 113.495 9.94C114.295 9.47333 115.215 9.24 116.255 9.24C117.295 9.24 118.215 9.47333 119.015 9.94C119.815 10.4067 120.442 11.05 120.895 11.87C121.348 12.69 121.575 13.6267 121.575 14.68C121.575 15.7267 121.348 16.6667 120.895 17.5C120.442 18.3333 119.815 18.99 119.015 19.47C118.215 19.9433 117.295 20.18 116.255 20.18ZM116.255 19.05C117.055 19.05 117.758 18.8633 118.365 18.49C118.978 18.1167 119.458 17.6 119.805 16.94C120.152 16.28 120.325 15.5267 120.325 14.68C120.325 13.8267 120.152 13.0767 119.805 12.43C119.458 11.7833 118.978 11.28 118.365 10.92C117.758 10.5533 117.055 10.37 116.255 10.37C115.462 10.37 114.758 10.5533 114.145 10.92C113.532 11.28 113.052 11.7833 112.705 12.43C112.358 13.0767 112.185 13.8267 112.185 14.68C112.185 15.5267 112.358 16.28 112.705 16.94C113.052 17.6 113.532 18.1167 114.145 18.49C114.758 18.8633 115.462 19.05 116.255 19.05ZM129.351 20.19C128.377 20.19 127.487 19.9733 126.681 19.54C125.874 19.1 125.227 18.47 124.741 17.65C124.261 16.83 124.021 15.8433 124.021 14.69C124.021 13.5367 124.261 12.5533 124.741 11.74C125.227 10.9267 125.874 10.3067 126.681 9.88C127.487 9.44667 128.377 9.23 129.351 9.23C130.097 9.23 130.764 9.34667 131.351 9.58C131.937 9.80667 132.434 10.11 132.841 10.49C133.247 10.8633 133.557 11.2733 133.771 11.72C133.984 12.1667 134.091 12.6067 134.091 13.04C134.091 13.0467 134.091 13.0567 134.091 13.07C134.091 13.0767 134.091 13.0867 134.091 13.1H132.861C132.861 13.0667 132.857 13.03 132.851 12.99C132.851 12.9433 132.847 12.9 132.841 12.86C132.781 12.38 132.591 11.9533 132.271 11.58C131.951 11.2067 131.541 10.91 131.041 10.69C130.541 10.47 129.974 10.36 129.341 10.36C128.627 10.36 127.961 10.5233 127.341 10.85C126.727 11.17 126.231 11.65 125.851 12.29C125.471 12.93 125.281 13.73 125.281 14.69C125.281 15.6433 125.467 16.4467 125.841 17.1C126.221 17.7467 126.717 18.2367 127.331 18.57C127.951 18.8967 128.621 19.06 129.341 19.06C130.127 19.06 130.777 18.93 131.291 18.67C131.804 18.41 132.191 18.0733 132.451 17.66C132.711 17.2467 132.847 16.8167 132.861 16.37H134.091C134.091 16.8167 133.987 17.2667 133.781 17.72C133.581 18.1733 133.281 18.5867 132.881 18.96C132.487 19.3333 131.994 19.6333 131.401 19.86C130.814 20.08 130.131 20.19 129.351 20.19ZM140.486 20.16C140.186 20.16 139.893 20.1233 139.606 20.05C139.326 19.9767 139.073 19.8467 138.846 19.66C138.626 19.4667 138.453 19.2033 138.326 18.87C138.2 18.5367 138.136 18.1133 138.136 17.6C138.136 17.46 138.136 17.3167 138.136 17.17C138.136 17.0167 138.136 16.8567 138.136 16.69V10.47H135.576V9.38H137.416C137.59 9.38 137.726 9.37333 137.826 9.36C137.926 9.34667 137.996 9.31333 138.036 9.26C138.083 9.20667 138.11 9.12333 138.116 9.01C138.13 8.89667 138.136 8.74 138.136 8.54V5.95H139.376V9.38H142.776V10.47H139.376V16.28C139.376 16.44 139.376 16.5933 139.376 16.74C139.376 16.8867 139.376 17.0233 139.376 17.15C139.376 17.75 139.463 18.22 139.636 18.56C139.816 18.9 140.153 19.07 140.646 19.07C140.833 19.07 141.016 19.0533 141.196 19.02C141.376 18.9867 141.513 18.95 141.606 18.91V19.99C141.493 20.0367 141.336 20.0767 141.136 20.11C140.936 20.1433 140.72 20.16 140.486 20.16ZM149.614 20.18C148.574 20.18 147.654 19.9433 146.854 19.47C146.054 18.99 145.428 18.3333 144.974 17.5C144.521 16.6667 144.294 15.7267 144.294 14.68C144.294 13.6267 144.521 12.69 144.974 11.87C145.428 11.05 146.054 10.4067 146.854 9.94C147.654 9.47333 148.574 9.24 149.614 9.24C150.654 9.24 151.574 9.47333 152.374 9.94C153.174 10.4067 153.801 11.05 154.254 11.87C154.708 12.69 154.934 13.6267 154.934 14.68C154.934 15.7267 154.708 16.6667 154.254 17.5C153.801 18.3333 153.174 18.99 152.374 19.47C151.574 19.9433 150.654 20.18 149.614 20.18ZM149.614 19.05C150.414 19.05 151.118 18.8633 151.724 18.49C152.338 18.1167 152.818 17.6 153.164 16.94C153.511 16.28 153.684 15.5267 153.684 14.68C153.684 13.8267 153.511 13.0767 153.164 12.43C152.818 11.7833 152.338 11.28 151.724 10.92C151.118 10.5533 150.414 10.37 149.614 10.37C148.821 10.37 148.118 10.5533 147.504 10.92C146.891 11.28 146.411 11.7833 146.064 12.43C145.718 13.0767 145.544 13.8267 145.544 14.68C145.544 15.5267 145.718 16.28 146.064 16.94C146.411 17.6 146.891 18.1167 147.504 18.49C148.118 18.8633 148.821 19.05 149.614 19.05ZM157.86 20V9.38H159.1V12.51L158.66 12.37C158.7 12.0367 158.797 11.69 158.95 11.33C159.11 10.9633 159.33 10.62 159.61 10.3C159.89 9.98 160.24 9.72333 160.66 9.53C161.087 9.33 161.593 9.23 162.18 9.23C162.607 9.23 162.95 9.26667 163.21 9.34C163.47 9.41333 163.633 9.47 163.7 9.51L163.36 10.71C163.293 10.6633 163.157 10.6033 162.95 10.53C162.743 10.4567 162.447 10.42 162.06 10.42C161.5 10.42 161.03 10.53 160.65 10.75C160.27 10.9633 159.967 11.2433 159.74 11.59C159.513 11.9367 159.35 12.3067 159.25 12.7C159.15 13.0867 159.1 13.46 159.1 13.82V20H157.86Z" fill="white"/>
<path d="M0 18.8H8.5L11.1842 9.2L15.6579 18.8L21.0263 2L25.9474 23H34" stroke="white"/>
<path d="M33 23L165 23" stroke="white"/>
</svg>
